<?xml version="1.0" standalone="no"?>
<!DOCTYPE svg PUBLIC "-//W3C//DTD SVG 20010904//EN"
 "http://www.w3.org/TR/2001/REC-SVG-20010904/DTD/svg10.dtd">
<svg version="1.0" xmlns="http://www.w3.org/2000/svg"
 width="1416.000000pt" height="1416.000000pt" viewBox="0 0 1416.000000 1416.000000"
 preserveAspectRatio="xMidYMid meet">
<metadata>
Created by potrace 1.14, written by Peter Selinger 2001-2017
</metadata>
<g transform="translate(0.000000,1416.000000) scale(0.100000,-0.100000)"
fill="#000000" stroke="none">
<path d="M7340 13840 c0 -5 3 -10 8 -10 20 0 63 -51 76 -91 35 -105 32 -226
-7 -274 -73 -90 -124 -124 -224 -150 -77 -20 -134 -19 -216 4 -156 45 -251
139 -266 263 -13 109 -2 150 63 226 19 21 19 22 1 22 -25 0 -132 -83 -178
-139 -44 -53 -117 -197 -117 -230 0 -12 -5 -31 -10 -42 -6 -10 -11 -72 -11
-138 -1 -96 3 -132 21 -192 13 -41 27 -78 32 -83 4 -6 8 -16 8 -23 0 -44 140
-206 225 -261 53 -35 131 -72 150 -72 8 0 19 -8 24 -18 10 -19 18 -1568 8
-1578 -3 -3 -25 5 -49 19 -229 129 -298 167 -304 167 -25 0 -71 53 -83 96 -20
66 -64 137 -114 179 -59 51 -66 47 -59 -31 9 -121 -44 -175 -171 -177 -75 -1
-126 17 -155 55 -7 9 -19 23 -27 31 -27 28 -28 79 -2 130 24 47 24 48 3 41
-48 -15 -109 -82 -148 -162 -18 -38 -22 -64 -22 -137 -1 -137 29 -211 116
-291 78 -72 132 -94 237 -94 61 0 84 5 135 29 33 17 83 50 110 75 27 25 52 46
57 46 4 0 32 -14 61 -31 29 -18 127 -70 218 -116 91 -47 172 -91 180 -99 13
-13 15 -81 15 -500 -1 -397 -3 -487 -14 -493 -8 -5 -532 -7 -1165 -5 -633 1
-1685 3 -2338 4 -1134 0 -1188 1 -1188 18 0 10 18 54 41 97 82 159 132 250
148 272 l16 22 1980 5 c1212 3 1990 9 2005 14 14 6 36 22 49 36 48 51 24 162
-42 198 -17 9 -397 12 -1627 11 -1942 -1 -2180 2 -2180 24 0 9 31 57 69 107
37 50 94 128 126 174 57 83 58 83 99 81 22 -1 567 -2 1209 -1 l1169 2 29 31
c25 27 29 39 29 88 0 50 -4 61 -29 85 -37 36 2 35 -1161 41 -906 5 -1070 9
-1070 26 0 4 21 27 47 51 72 66 149 146 216 223 33 39 67 74 76 80 10 6 354
11 934 12 1001 3 946 -1 978 60 8 14 14 48 13 75 -1 60 -32 97 -91 107 -22 4
-264 8 -539 9 -274 1 -608 5 -741 8 -264 7 -262 7 -191 61 223 171 313 240
331 252 12 8 34 22 49 32 26 18 70 19 1039 19 727 0 1021 3 1044 11 40 15 75
68 75 115 0 43 -31 91 -69 106 -15 6 -130 9 -286 9 -264 -1 -1208 19 -1360 29
-22 1 38 36 210 120 216 106 263 127 425 190 236 91 367 135 490 165 136 34
263 75 268 87 2 4 10 8 17 8 19 0 85 80 85 103 0 16 -6 14 -39 -15 -31 -27
-59 -38 -142 -57 -57 -13 -124 -29 -149 -37 -25 -7 -79 -22 -120 -34 -94 -27
-160 -49 -182 -61 -10 -5 -27 -9 -37 -9 -11 0 -22 -4 -25 -9 -3 -5 -18 -11
-33 -14 -44 -8 -191 -62 -276 -101 -42 -20 -80 -36 -84 -36 -14 0 -379 -184
-430 -217 -29 -18 -54 -33 -57 -33 -3 0 -45 -25 -95 -55 -50 -30 -94 -55 -98
-55 -4 0 -25 -16 -45 -35 -20 -19 -43 -35 -50 -35 -8 0 -27 -14 -44 -31 -30
-32 -157 -129 -168 -129 -3 0 -6 5 -6 10 0 6 4 10 10 10 10 0 32 18 107 87 34
32 43 47 35 55 -8 8 -19 3 -40 -19 -16 -16 -52 -46 -81 -68 -28 -22 -51 -43
-51 -47 0 -4 -25 -8 -55 -8 -30 0 -55 -4 -55 -10 0 -5 5 -10 10 -10 22 0 8
-26 -20 -38 -17 -8 -30 -20 -30 -29 0 -8 -7 -13 -17 -11 -22 4 -29 28 -9 28
19 0 21 11 4 28 -10 10 -10 15 2 22 8 5 11 12 6 17 -4 4 -12 0 -17 -10 -6 -9
-20 -17 -32 -18 -12 0 -16 -3 -9 -6 18 -7 15 -27 -7 -47 -21 -19 -46 -13 -37
9 12 33 -50 23 -102 -17 -17 -12 -33 -15 -55 -11 -28 6 -30 4 -19 -9 11 -14 6
-15 -39 -13 -28 1 -54 7 -58 12 -3 5 -14 12 -23 16 -15 5 -18 1 -18 -28 0 -18
-5 -37 -10 -40 -16 -10 -40 14 -40 40 0 27 -8 35 -26 28 -13 -5 -13 -8 0 -22
17 -19 32 -71 20 -71 -13 1 -37 23 -50 45 -12 22 -34 32 -34 16 0 -6 7 -11 15
-11 8 0 15 -7 15 -15 0 -9 -9 -15 -23 -15 -15 0 -29 -11 -40 -30 -10 -16 -25
-30 -33 -30 -17 0 -19 17 -1 23 9 4 9 7 0 17 -16 17 -43 -3 -43 -32 0 -15 -5
-18 -20 -13 -12 4 -20 2 -20 -5 0 -7 -8 -9 -20 -5 -17 6 -19 3 -14 -23 5 -25
2 -31 -16 -37 -12 -4 -24 -4 -27 -1 -4 3 1 6 10 6 10 0 17 7 17 15 0 8 -3 15
-8 15 -11 0 -247 -235 -317 -316 -33 -38 -65 -73 -71 -79 -6 -5 -33 -37 -60
-70 -27 -33 -54 -65 -60 -72 -15 -16 -214 -277 -234 -306 -8 -13 -43 -60 -77
-105 -35 -45 -63 -85 -63 -88 0 -4 -15 -27 -34 -53 -19 -25 -47 -68 -63 -96
-17 -27 -59 -97 -94 -155 -211 -343 -393 -735 -559 -1205 -101 -284 -200 -636
-240 -850 -4 -22 -14 -74 -23 -115 -45 -214 -92 -579 -86 -660 l4 -44 65 -12
c152 -28 354 -45 645 -54 171 -6 326 -16 345 -22 66 -20 130 -68 161 -122 47
-83 38 -146 -33 -213 -52 -50 -94 -53 -765 -53 -647 1 -631 -1 -618 52 3 12
15 34 25 48 18 24 26 25 142 31 152 9 180 15 210 46 17 18 23 36 23 70 0 40
-5 49 -36 77 -50 43 -108 56 -247 56 -123 0 -228 -17 -282 -45 -48 -25 -116
-91 -145 -141 -51 -87 -67 -156 -66 -295 0 -71 5 -137 10 -148 6 -11 11 -29
11 -40 0 -50 92 -226 173 -331 128 -166 248 -244 412 -269 33 -5 405 -10 828
-10 827 -1 794 -3 843 51 12 12 27 40 33 60 15 46 -1 107 -36 140 l-25 23
-671 1 c-684 1 -751 4 -865 40 -58 19 -89 36 -137 74 -60 48 -129 150 -137
205 -3 20 3 20 667 21 733 1 719 0 839 61 63 32 164 133 194 195 30 61 52 148
52 203 0 167 -124 366 -273 439 -105 51 -157 58 -492 65 l-310 6 2 60 c2 33 8
93 15 133 l12 72 528 0 c570 0 556 -1 607 53 32 35 39 102 16 147 -36 70 -8
66 -534 73 -262 4 -493 10 -514 13 -38 7 -39 8 -34 43 3 20 10 54 16 76 5 22
14 58 20 80 14 62 47 166 64 207 l16 38 2274 0 c2501 0 2311 -5 2357 60 26 37
26 104 0 147 -41 67 148 62 -2286 67 -1215 2 -2221 5 -2236 7 -35 5 -42 13
-29 36 6 10 22 47 35 83 41 110 79 203 100 245 l21 40 2215 4 c1218 2 2306 0
2417 -4 l202 -7 3 -202 c4 -264 16 -289 138 -302 63 -7 102 19 124 82 14 42
16 130 16 781 0 403 2 733 5 733 4 0 45 -23 93 -51 212 -126 248 -151 276
-195 51 -81 121 -127 208 -138 24 -3 896 -8 1938 -12 2182 -8 2091 -7 2108
-18 6 -4 12 -13 12 -20 0 -7 8 -24 18 -37 10 -13 54 -91 96 -173 61 -116 75
-151 64 -157 -7 -5 -958 -9 -2113 -9 -1155 -1 -2120 -5 -2143 -9 -54 -11 -72
-28 -81 -78 -18 -98 19 -166 99 -176 25 -4 1015 -7 2200 -8 1185 -1 2163 -4
2173 -7 9 -2 17 -8 17 -13 0 -5 11 -32 24 -61 68 -153 124 -313 112 -325 -4
-4 -1043 -9 -2307 -10 -1265 0 -2310 -4 -2323 -7 -37 -9 -98 -63 -151 -134
-54 -72 -100 -132 -268 -342 -191 -241 -209 -261 -250 -288 l-40 -27 -316 -3
c-309 -3 -316 -4 -339 -25 -33 -31 -115 -158 -209 -322 -44 -77 -143 -246
-220 -375 -185 -310 -447 -754 -495 -840 -29 -51 -130 -228 -161 -280 -11 -19
-36 -64 -55 -100 -19 -36 -44 -77 -54 -92 -10 -15 -25 -43 -33 -62 -9 -21 -20
-33 -28 -30 -6 3 -31 40 -55 82 -23 43 -81 142 -127 221 -47 78 -85 144 -85
146 0 2 -13 26 -29 53 -15 26 -40 68 -53 93 -14 24 -50 85 -80 134 -30 50 -70
119 -90 155 -20 36 -51 90 -68 120 -38 64 -34 56 -175 305 -221 389 -420 723
-454 758 -49 54 -65 57 -266 57 l-187 0 -28 -28 c-16 -16 -33 -46 -39 -68 -12
-46 -18 -4066 -6 -4129 24 -124 107 -202 226 -212 109 -10 205 47 259 153 l25
49 5 1455 c5 1375 2 1671 -15 1730 l-7 25 21 -25 c11 -14 30 -45 42 -70 12
-25 88 -157 169 -295 81 -137 164 -281 185 -320 21 -38 58 -100 82 -138 24
-37 43 -70 43 -73 0 -3 8 -18 19 -32 10 -15 30 -47 43 -72 14 -25 52 -88 83
-140 32 -52 63 -104 69 -115 18 -31 79 -134 101 -169 11 -18 33 -54 49 -82 16
-27 39 -66 52 -86 13 -21 24 -40 24 -42 0 -3 23 -42 51 -88 28 -46 65 -108 82
-138 46 -85 99 -161 114 -167 37 -14 66 21 171 207 11 19 65 109 120 200 55
91 108 181 119 200 11 19 57 96 103 170 135 221 162 266 274 460 58 102 111
192 116 200 5 8 46 78 91 155 46 77 95 159 111 182 15 23 28 44 28 47 0 3 20
37 45 76 25 39 45 75 45 80 0 6 4 10 9 10 5 0 12 10 16 23 6 19 8 20 12 4 3
-10 -1 -24 -7 -32 -9 -11 -12 -373 -11 -1541 l2 -1526 23 -51 c27 -59 53 -89
99 -114 30 -17 125 -18 1757 -14 1366 3 1731 6 1756 16 36 15 78 67 88 108 14
61 -16 125 -74 158 -21 12 -268 15 -1575 19 l-1550 5 -3 1612 -2 1612 22 23
c81 82 174 199 342 428 42 58 117 157 166 220 96 125 109 142 187 252 28 40
109 150 180 243 l130 170 2099 3 c1154 2 2185 0 2290 -3 l192 -7 21 -67 c11
-36 32 -113 46 -171 14 -58 30 -122 36 -144 8 -28 7 -42 -1 -50 -8 -8 -157
-12 -508 -14 l-497 -4 -26 -24 c-52 -49 -56 -122 -11 -192 30 -47 29 -47 582
-52 l525 -5 8 -75 c4 -41 11 -94 16 -117 4 -23 4 -48 0 -55 -6 -9 -80 -14
-301 -20 -310 -7 -356 -13 -459 -61 -71 -32 -188 -145 -224 -217 -74 -146 -74
-322 0 -458 58 -107 179 -194 294 -213 32 -5 357 -11 721 -13 364 -3 663 -6
665 -8 2 -2 -8 -28 -23 -58 -30 -63 -140 -179 -201 -209 -108 -55 -100 -55
-868 -61 l-713 -5 -32 -32 c-28 -29 -32 -39 -32 -85 0 -61 21 -107 61 -134 27
-18 59 -19 823 -19 882 0 835 -3 978 68 178 88 336 294 417 542 87 269 3 531
-202 632 -57 28 -60 28 -248 28 -161 0 -195 -3 -222 -17 -74 -41 -98 -126 -49
-177 26 -27 35 -29 159 -41 73 -7 141 -17 153 -21 25 -9 66 -82 58 -104 -5
-13 -80 -15 -618 -14 -336 0 -635 4 -664 8 -86 12 -142 79 -142 169 0 60 20
101 73 152 63 61 99 67 458 80 334 11 633 40 655 62 21 21 25 86 14 230 -21
269 -61 524 -115 738 -25 97 -47 184 -55 220 -13 53 -26 97 -53 185 -14 44
-33 105 -42 135 -10 30 -21 64 -25 75 -5 11 -22 61 -39 110 -44 132 -81 236
-96 270 -7 17 -25 59 -40 95 -15 36 -38 90 -52 120 -14 30 -32 71 -40 90 -30
69 -187 386 -208 420 -12 19 -35 60 -52 90 -53 96 -68 122 -143 240 -132 206
-332 489 -408 575 -15 17 -49 57 -77 90 -27 33 -64 76 -82 95 -17 19 -40 46
-51 60 -11 14 -45 52 -76 85 -31 33 -56 63 -56 67 0 5 -5 8 -11 8 -6 0 -9 -7
-5 -15 3 -8 0 -15 -5 -15 -7 0 -9 9 -6 21 5 17 -11 38 -76 100 -45 43 -83 74
-85 69 -2 -6 -10 -10 -18 -10 -8 0 -14 -5 -14 -11 0 -8 -5 -8 -15 1 -8 7 -15
17 -15 22 0 6 7 8 15 4 8 -3 15 -1 15 4 0 19 -22 21 -56 5 -20 -9 -38 -14 -42
-11 -8 9 39 56 57 56 13 0 14 2 2 9 -9 6 -29 4 -54 -5 -63 -22 -94 -18 -132
19 -55 52 -63 57 -80 51 -8 -4 -29 -1 -46 6 -16 7 -47 14 -67 15 -20 2 -50 6
-66 10 -22 6 -32 4 -42 -10 -12 -16 -14 -16 -37 9 -15 16 -35 26 -52 26 -22 0
-26 4 -22 19 3 12 -3 27 -14 37 -18 16 -21 16 -35 2 -14 -14 -18 -12 -44 13
-31 32 -50 37 -50 14 0 -22 -34 -18 -55 5 -18 20 -17 20 8 20 34 0 34 5 -2 40
-21 22 -31 26 -40 17 -9 -9 -16 -9 -31 1 -11 6 -27 12 -35 12 -8 0 -15 5 -15
10 0 6 -13 10 -30 10 -23 0 -30 4 -30 20 0 11 -8 23 -17 26 -23 8 -64 24 -85
35 -26 13 -38 11 -38 -6 0 -25 -30 -17 -74 19 -23 18 -81 57 -131 86 -49 30
-131 79 -181 110 -122 75 -517 270 -547 270 -7 0 -17 4 -23 9 -5 5 -45 21 -89
36 -44 15 -89 30 -100 35 -11 5 -36 13 -55 19 -19 6 -62 19 -95 30 -62 21
-201 59 -245 68 -14 3 -65 15 -115 28 -49 12 -117 28 -150 35 -93 19 -114 30
-150 77 -19 24 -36 50 -38 56 -2 7 -8 9 -12 4 -5 -4 -3 -13 3 -19 7 -7 12 -24
12 -39 0 -30 34 -84 70 -110 30 -23 160 -60 305 -90 33 -6 105 -25 160 -41 55
-17 114 -33 130 -38 17 -4 62 -19 100 -33 197 -71 242 -88 260 -97 11 -5 65
-29 120 -54 55 -24 159 -74 230 -111 72 -37 144 -75 162 -84 18 -9 32 -19 33
-22 0 -10 -181 -20 -473 -27 l-269 -7 -34 -37 c-59 -65 -42 -153 36 -193 25
-13 107 -15 537 -15 279 1 528 5 553 10 31 6 50 5 61 -3 10 -7 74 -52 143
-100 160 -111 306 -233 306 -254 0 -20 -204 -24 -1005 -21 l-780 3 -50 101
c-79 160 -163 250 -293 314 -37 18 -78 38 -92 45 -14 7 -37 11 -53 8 -15 -3
-33 0 -41 6 -32 26 -292 22 -366 -6 -8 -3 -24 -5 -36 -4 -23 2 -119 -53 -181
-105 -85 -70 -183 -213 -216 -314 -87 -264 -12 -548 194 -734 68 -62 214 -139
294 -157 251 -55 493 20 661 204 28 30 69 91 92 134 38 73 48 98 82 210 l13
42 1051 -1 1051 -1 60 -66 c33 -36 96 -104 141 -151 97 -102 138 -157 124
-165 -5 -3 -508 -8 -1117 -12 -1197 -6 -1138 -3 -1182 -59 -38 -49 -21 -137
34 -176 5 -4 573 -8 1261 -8 l1251 0 63 -92 c35 -51 90 -128 122 -172 32 -43
58 -86 58 -96 0 -16 -37 -17 -507 -23 -280 -4 -1115 -6 -1858 -4 -1113 2
-1354 5 -1375 16 -14 8 -79 49 -145 91 -66 43 -138 88 -160 101 -37 21 -183
104 -280 158 -22 13 -55 34 -72 48 l-33 24 0 858 c0 940 -4 875 61 888 65 13
156 71 249 159 178 170 226 551 102 814 -32 68 -129 167 -199 203 -56 29 -73
33 -73 17z m2732 -1632 c-9 -9 -15 -9 -24 0 -9 9 -7 12 12 12 19 0 21 -3 12
-12z m68 -28 c0 -5 -6 -10 -14 -10 -8 0 -18 5 -21 10 -3 6 3 10 14 10 12 0 21
-4 21 -10z m40 -35 c17 -9 30 -20 30 -25 0 -16 -20 -12 -26 5 -4 8 -15 15 -25
15 -10 0 -19 5 -19 10 0 13 6 13 40 -5z m110 -45 c0 -12 -37 -23 -50 -15 -18
11 -10 20 20 22 17 1 30 -2 30 -7z m50 0 c0 -5 -7 -10 -15 -10 -8 0 -15 5 -15
10 0 6 7 10 15 10 8 0 15 -4 15 -10z m-6330 -20 c0 -5 -7 -10 -15 -10 -8 0
-15 -4 -15 -10 0 -5 -7 -10 -15 -10 -24 0 -17 15 13 27 15 6 28 11 30 12 1 1
2 -3 2 -9z m6300 -4 c0 -3 -4 -8 -10 -11 -5 -3 -10 -1 -10 4 0 6 5 11 10 11 6
0 10 -2 10 -4z m-6380 -56 c-11 -11 -23 -20 -26 -20 -3 0 -13 -7 -21 -16 -13
-13 -17 -13 -24 -2 -6 9 -2 14 12 16 12 2 18 9 15 17 -4 13 10 19 52 24 6 0 3
-8 -8 -19z m6410 10 c0 -5 6 -10 13 -10 14 -1 75 -60 61 -60 -5 0 -25 13 -44
30 -19 16 -40 29 -47 30 -21 0 -25 20 -4 20 12 0 21 -4 21 -10z m-6540 -20 c0
-5 -4 -10 -10 -10 -5 0 -10 5 -10 10 0 6 5 10 10 10 6 0 10 -4 10 -10z m4335
-15 c99 -25 183 -88 256 -190 46 -65 64 -130 63 -235 -1 -135 -50 -248 -143
-331 -68 -61 -123 -87 -224 -106 -72 -13 -86 -13 -144 2 -166 41 -263 128
-328 296 -31 78 -34 207 -8 285 48 144 183 259 348 297 28 6 120 -3 180 -18z
m2331 10 c4 -8 15 -15 26 -15 13 0 18 -6 16 -17 -5 -25 -29 -28 -35 -4 -3 12
-12 21 -19 21 -8 0 -14 7 -14 15 0 8 5 15 10 15 6 0 13 -7 16 -15z m-6773 -46
c4 -15 1 -19 -11 -17 -21 4 -29 38 -9 38 8 0 17 -9 20 -21z m-231 -31 c-7 -7
-12 -8 -12 -2 0 14 12 26 19 19 2 -3 -1 -11 -7 -17z m68 1 c0 -5 -4 -9 -10 -9
-5 0 -10 7 -10 16 0 8 5 12 10 9 6 -3 10 -10 10 -16z m6970 -30 c0 -6 -7 -6
-20 1 -11 6 -20 15 -20 21 0 6 7 6 20 -1 11 -6 20 -15 20 -21z m90 11 c0 -5
-4 -10 -10 -10 -5 0 -10 5 -10 10 0 6 5 10 10 10 6 0 10 -4 10 -10z m-6920
-30 c0 -5 -4 -10 -10 -10 -5 0 -10 5 -10 10 0 6 5 10 10 10 6 0 10 -4 10 -10z
m6880 -16 c0 -9 -5 -14 -12 -12 -18 6 -21 28 -4 28 9 0 16 -7 16 -16z m-7240
2 c0 -11 -19 -15 -25 -6 -3 5 1 10 9 10 9 0 16 -2 16 -4z m400 -15 c0 -5 -7
-11 -15 -15 -9 -3 -15 0 -15 9 0 8 7 15 15 15 8 0 15 -4 15 -9z m-610 -71 c0
-5 -5 -10 -11 -10 -5 0 -7 5 -4 10 3 6 8 10 11 10 2 0 4 -4 4 -10z m8130 -50
c0 -5 8 -10 17 -10 13 0 14 -3 6 -11 -9 -9 -16 -8 -27 4 -18 18 -20 27 -6 27
6 0 10 -4 10 -10z m70 -45 c0 -8 -7 -15 -15 -15 -8 0 -15 7 -15 15 0 8 7 15
15 15 8 0 15 -7 15 -15z m-8370 -19 c0 -3 -4 -8 -10 -11 -5 -3 -10 -1 -10 4 0
6 5 11 10 11 6 0 10 -2 10 -4z"/>
<path d="M4170 12300 c0 -5 7 -10 16 -10 8 0 12 5 9 10 -3 6 -10 10 -16 10 -5
0 -9 -4 -9 -10z"/>
<path d="M4250 12300 c0 -5 5 -10 10 -10 6 0 10 5 10 10 0 6 -4 10 -10 10 -5
0 -10 -4 -10 -10z"/>
<path d="M10030 12301 c0 -5 -10 -11 -22 -15 -16 -4 -20 -8 -12 -16 14 -14 36
-5 52 20 10 17 10 20 -3 20 -8 0 -15 -4 -15 -9z"/>
<path d="M4070 12250 c0 -11 5 -20 10 -20 6 0 10 9 10 20 0 11 -4 20 -10 20
-5 0 -10 -9 -10 -20z"/>
<path d="M4027 12213 c-13 -12 -7 -33 8 -33 8 0 15 9 15 20 0 20 -11 26 -23
13z"/>
<path d="M3882 12183 c3 -19 48 -32 48 -14 0 10 -31 31 -45 31 -4 0 -5 -8 -3
-17z"/>
<path d="M3970 12171 c15 -29 30 -35 30 -13 0 11 -7 23 -16 26 -24 9 -26 8
-14 -13z"/>
<path d="M3720 12100 c0 -5 5 -10 10 -10 6 0 10 5 10 10 0 6 -4 10 -10 10 -5
0 -10 -4 -10 -10z"/>
<path d="M10515 12090 c3 -5 10 -10 16 -10 5 0 9 5 9 10 0 6 -7 10 -16 10 -8
0 -12 -4 -9 -10z"/>
<path d="M3850 12076 c0 -9 7 -16 16 -16 9 0 14 5 12 12 -6 18 -28 21 -28 4z"/>
<path d="M10658 11993 c7 -3 16 -2 19 1 4 3 -2 6 -13 5 -11 0 -14 -3 -6 -6z"/>
<path d="M3215 11980 c-3 -5 1 -10 9 -10 9 0 16 5 16 10 0 6 -4 10 -9 10 -6 0
-13 -4 -16 -10z"/>
<path d="M10836 11983 c-11 -11 -6 -23 9 -23 8 0 15 4 15 9 0 13 -16 22 -24
14z"/>
<path d="M10990 11910 c0 -5 5 -10 10 -10 6 0 10 5 10 10 0 6 -4 10 -10 10 -5
0 -10 -4 -10 -10z"/>
<path d="M11100 11890 c0 -5 5 -10 11 -10 5 0 7 5 4 10 -3 6 -8 10 -11 10 -2
0 -4 -4 -4 -10z"/>
<path d="M11042 11873 c-15 -6 -6 -23 14 -23 8 0 14 7 14 15 0 15 -6 17 -28 8z"/>
<path d="M9270 8269 c-301 -43 -604 -166 -824 -335 -345 -263 -584 -667 -657
-1109 -17 -101 -23 -401 -10 -495 20 -142 43 -237 89 -355 67 -176 116 -267
226 -420 28 -38 55 -76 61 -84 37 -52 245 -249 321 -302 125 -89 305 -178 459
-226 28 -9 59 -19 70 -23 20 -8 87 -21 206 -40 138 -21 436 -9 584 25 60 14
171 47 205 62 150 64 341 169 417 230 23 18 46 33 51 33 6 0 9 -224 9 -584
l-1 -584 33 -66 c46 -93 118 -136 229 -136 101 0 181 53 235 154 l22 41 3
1250 c2 688 0 1269 -3 1293 l-6 42 -768 0 c-834 0 -801 2 -869 -55 -35 -29
-72 -118 -72 -171 0 -82 46 -186 101 -227 58 -42 117 -47 623 -47 l479 0 -6
-43 c-15 -109 -71 -210 -181 -326 -186 -195 -419 -321 -679 -367 -186 -32
-404 -5 -605 77 -283 115 -543 393 -640 684 -46 137 -57 215 -57 390 0 247 30
383 125 569 170 332 479 561 844 626 91 15 324 13 414 -6 193 -39 390 -136
572 -284 98 -79 133 -94 216 -95 81 0 146 27 194 81 30 35 70 130 70 168 0 62
-62 173 -132 234 -40 37 -145 112 -155 112 -3 0 -26 15 -52 34 -124 91 -340
192 -504 235 -171 46 -469 65 -637 40z"/>
<path d="M1114 6118 c3 -51 10 -115 15 -143 4 -27 14 -84 21 -125 12 -77 25
-134 86 -390 40 -166 54 -214 137 -470 112 -345 208 -582 357 -885 167 -337
215 -421 432 -749 224 -339 515 -695 783 -960 229 -227 603 -544 780 -662 28
-18 68 -46 90 -62 59 -41 343 -221 395 -250 25 -14 59 -33 75 -42 17 -10 57
-33 90 -52 80 -45 398 -199 470 -228 11 -4 40 -15 65 -25 25 -10 56 -22 70
-28 48 -19 66 -26 160 -60 52 -20 111 -40 130 -46 19 -6 69 -22 110 -35 41
-13 95 -29 120 -36 25 -7 59 -17 75 -21 83 -25 412 -99 500 -114 55 -9 123
-20 150 -25 28 -5 88 -14 135 -19 47 -6 123 -15 170 -21 317 -39 752 -39 1165
0 105 10 140 14 335 41 91 12 218 36 370 70 52 12 106 23 120 26 14 3 45 11
70 18 25 7 63 17 85 23 446 122 850 286 1300 527 39 21 89 50 112 66 23 16 44
29 48 29 7 0 104 60 255 159 114 74 334 234 441 321 247 200 642 588 815 800
38 47 73 90 79 96 20 21 196 251 245 319 27 39 53 75 58 80 8 10 89 134 169
258 133 208 292 505 403 752 12 28 32 73 45 100 55 122 63 141 69 165 4 14 11
34 16 45 18 42 43 112 62 170 10 33 23 69 28 80 17 38 70 207 105 335 3 14 10
39 15 55 8 28 21 78 69 257 55 211 87 387 120 663 5 39 6 73 4 78 -2 4 -114 7
-248 7 -242 0 -244 0 -256 -22 -15 -27 -38 -158 -39 -213 0 -22 -6 -60 -14
-85 -13 -44 -14 -45 -62 -52 -27 -3 -259 -7 -516 -7 -281 -1 -477 -5 -493 -11
-14 -5 -37 -22 -50 -36 -53 -58 -16 -192 60 -218 18 -6 224 -11 503 -13 l473
-4 -7 -37 c-3 -20 -21 -92 -40 -159 -19 -68 -34 -130 -34 -138 0 -8 -5 -25
-12 -38 -6 -12 -14 -29 -18 -37 -6 -13 -69 -16 -445 -20 l-437 -5 -34 -39
c-41 -47 -45 -96 -14 -157 41 -80 37 -79 453 -79 l368 0 -6 -22 c-13 -44 -84
-214 -129 -311 l-45 -97 -282 0 c-265 0 -283 -1 -318 -20 -42 -24 -61 -59 -61
-113 0 -43 31 -106 60 -125 33 -20 149 -33 289 -32 170 1 161 2 161 -9 0 -6
-23 -52 -51 -103 -29 -51 -58 -104 -65 -118 -7 -14 -78 -122 -157 -240 l-143
-215 -370 -5 c-415 -6 -413 -5 -440 -75 -28 -75 12 -165 84 -185 20 -5 137
-10 260 -10 171 0 222 -3 222 -12 0 -11 -190 -234 -288 -338 l-33 -35 -192 -6
c-106 -3 -905 -5 -1777 -5 l-1585 1 -3 196 -2 196 587 6 c324 4 967 4 1431 1
942 -7 954 -6 998 52 30 39 41 118 22 154 -8 14 -29 33 -48 42 -33 16 -278 17
-3836 18 l-3802 0 -27 35 c-33 44 -231 339 -255 381 -10 17 -24 42 -32 55 -7
13 -16 26 -19 29 -18 14 -91 170 -86 183 4 11 20 14 64 12 32 -1 121 1 198 5
166 8 195 19 227 85 20 40 20 48 8 84 -7 22 -25 55 -40 73 l-28 33 -293 3
c-197 2 -297 7 -307 14 -14 12 -28 41 -91 193 -23 55 -46 109 -50 120 -25 59
-31 77 -31 90 0 13 52 15 360 15 386 0 403 2 446 51 37 42 49 85 35 127 -17
51 -44 81 -83 93 -18 5 -216 9 -444 9 -431 0 -435 0 -447 45 -3 11 -18 65 -34
120 -30 101 -47 171 -58 235 l-6 35 463 -3 c500 -3 533 -1 574 47 13 14 28 44
34 67 10 36 9 46 -10 87 -12 25 -29 52 -37 59 -13 10 -132 14 -549 18 -335 3
-537 9 -543 15 -12 12 -27 75 -41 175 -6 41 -16 100 -23 130 l-13 55 -253 3
-254 2 7 -92z m5594 -2954 l142 -7 -2 -196 -3 -196 -1725 -3 c-949 -1 -1744 0
-1767 3 -40 6 -50 15 -155 137 -62 72 -135 155 -161 186 -26 30 -44 59 -40 63
5 5 116 10 248 11 558 7 3332 8 3463 2z m480 -410 c12 -8 29 -29 38 -46 14
-27 14 -31 -1 -48 -48 -53 -130 -64 -181 -25 -30 23 -32 28 -23 52 5 14 19 39
30 54 17 25 27 29 67 29 27 0 57 -7 70 -16z m-350 -279 c9 -3 12 -85 12 -364
0 -371 5 -423 44 -499 39 -76 129 -121 240 -122 72 0 84 3 127 31 53 34 112
107 124 154 4 17 9 58 12 92 l5 61 1136 -3 c625 -2 1136 -7 1136 -11 -1 -5
-23 -20 -50 -34 -219 -114 -317 -161 -464 -220 -30 -12 -64 -26 -75 -30 -216
-89 -472 -164 -920 -270 -37 -9 -139 -26 -295 -49 -255 -38 -546 -55 -835 -47
-483 12 -779 49 -1125 139 -63 16 -131 33 -150 37 -81 18 -290 79 -345 100
-11 5 -65 25 -120 45 -272 100 -560 230 -675 304 l-55 36 931 5 931 5 35 27
c60 46 64 150 7 204 l-30 29 -1168 5 -1167 5 -69 55 c-77 60 -230 186 -312
257 -29 24 -53 49 -53 54 0 14 3125 18 3168 4z m3764 -3 c5 -5 -12 -26 -39
-48 -26 -21 -50 -41 -53 -45 -7 -9 -120 -100 -242 -194 l-103 -80 -1382 -1
-1383 -1 0 187 c0 103 2 189 4 191 8 8 3190 -1 3198 -9z"/>
<path d="M4370 4253 c-35 -7 -75 -47 -90 -93 -25 -77 29 -182 102 -195 18 -3
332 -5 697 -3 l663 3 39 44 c37 41 39 48 39 107 0 59 -2 65 -35 97 -22 22 -50
37 -73 41 -42 7 -1303 6 -1342 -1z"/>
<path d="M7039 3800 c-92 -16 -145 -72 -174 -185 -18 -69 -19 -109 -2 -123 7
-6 111 -10 265 -11 l252 -2 12 26 c15 33 -4 121 -40 188 -40 75 -92 105 -188
111 -44 3 -100 1 -125 -4z"/>
</g>
</svg>
